STARTFONT 2.1
COMMENT +
COMMENT  Copyright 1988 Bitstream, Inc., Cambridge, Massachusetts, USA
COMMENT  Copyright 1996 BIZNET Poland, Inc.
COMMENT
COMMENT  Permission to use, copy, modify, and distribute this software and
COMMENT  its documentation for any purpose and without fee is hereby
COMMENT  granted, provided that the above copyright notice appear in all
COMMENT  copies and that both that copyright notice and this permission
COMMENT  notice appear in supporting documentation, and that the name of
COMMENT  Bitstream not be used in advertising or publicity pertaining to
COMMENT  distribution of the software without specific, written prior
COMMENT  permission.  Bitstream makes no representations about the
COMMENT  suitability of this software for any purpose.  It is provided "as
COMMENT  is" without express or implied warranty.
COMMENT
COMMENT  BITSTREAM DISCLAIMS ALL WARRANTIES WITH REGARD TO THIS SOFTWARE,
COMMENT  INCLUDING ALL IMPLIED WARRANTIES OF MERCHANTABILITY AND FITNESS, IN
COMMENT  NO EVENT SHALL BITSTREAM BE LIABLE FOR ANY SPECIAL, INDIRECT OR
COMMENT  CONSEQUENTIAL DAMAGES OR ANY DAMAGES WHATSOEVER RESULTING FROM LOSS
COMMENT  OF USE, DATA OR PROFITS, WHETHER IN AN ACTION OF CONTRACT,
COMMENT  NEGLIGENCE OR OTHER TORTIOUS ACTION, ARISING OUT OF OR IN
COMMENT  CONNECTION WITH THE USE OR PERFORMANCE OF THIS SOFTWARE.
COMMENT -
FONT -BIZNET-Chartis-Medium-I-Normal--33-240-100-100-P-179-ISO8859-2
SIZE 24 100 100
FONTBOUNDINGBOX 30 33 -5 -8
STARTPROPERTIES 23
FOUNDRY "BIZNET"
FAMILY_NAME "BIZNET Chartis"
WEIGHT_NAME "Medium"
SLANT "I"
SETWIDTH_NAME "Normal"
ADD_STYLE_NAME ""
PIXEL_SIZE 33
POINT_SIZE 240
RESOLUTION_X 100
RESOLUTION_Y 100
SPACING "P"
AVERAGE_WIDTH 179
CHARSET_REGISTRY "ISO8859"
CHARSET_ENCODING "2"
CAP_HEIGHT 22
X_HEIGHT 16
FONT_ASCENT 32
FONT_DESCENT 8
FACE_NAME "BIZNET Chartis Italic"
DEFAULT_CHAR 1
CHARSET_COLLECTIONS "ASCII ISO8859-2"

STARTCHAR space
ENCODING 32
SWIDTH 270 0
DWIDTH 9 0
BBX 1 1 0 0
BITMAP
00
ENDCHAR
STARTCHAR exclam
ENCODING 33
SWIDTH 330 0
DWIDTH 11 0
BBX 7 22 2 0
BITMAP
0E
0E
1E
1E
1C
1C
1C
1C
18
38
38
30
30
30
30
20
00
00
60
F0
F0
60
ENDCHAR
STARTCHAR quotedbl
ENCODING 34
SWIDTH 330 0
DWIDTH 11 0
BBX 9 10 1 13
BITMAP
E380
E380
E380
E380
E380
4100
4100
4100
4100
4100
ENDCHAR
STARTCHAR numbersign
ENCODING 35
SWIDTH 750 0
DWIDTH 25 0
BBX 21 25 2 -2
BITMAP
003060
003060
0020C0
0060C0
0060C0
004180
00C180
00C100
3FFFF8
3FFFF8
018300
010600
030600
030600
020C00
FFFFF0
FFFFF0
040800
0C1800
0C1800
081000
183000
183000
106000
306000
ENDCHAR
STARTCHAR dollar
ENCODING 36
SWIDTH 540 0
DWIDTH 18 0
BBX 16 27 1 -3
BITMAP
0030
0020
00FC
03FF
0767
0E63
1C42
1C42
1C40
1CC0
1EC0
0F80
07E0
01F8
01FC
019C
011C
610C
610C
631C
C318
F270
7FE0
1F80
0200
0600
0600
ENDCHAR
STARTCHAR percent
ENCODING 37
SWIDTH 840 0
DWIDTH 28 0
BBX 24 22 2 0
BITMAP
0F000C
398018
30C030
60C060
60C0E0
60C0C0
C0C180
C0C300
C18600
C18C3C
C398E6
6718C3
3C3183
006183
00C383
018303
030306
070306
060306
0C030C
18019C
3000F0
ENDCHAR
STARTCHAR ampersand
ENCODING 38
SWIDTH 690 0
DWIDTH 23 0
BBX 21 22 1 0
BITMAP
00FC00
038E00
070700
060700
0E0700
0E0700
0E0600
0F0E00
071C00
07B800
03E000
0FC1F8
1CE060
30F040
7070C0
E03880
E01D00
E01F00
F00E00
F00F00
7C3380
3FE1F0
ENDCHAR
STARTCHAR quoteright
ENCODING 39
SWIDTH 210 0
DWIDTH 7 0
BBX 6 9 2 14
BITMAP
38
7C
7C
0C
18
18
30
60
C0
ENDCHAR
STARTCHAR parenleft
ENCODING 40
SWIDTH 420 0
DWIDTH 14 0
BBX 12 29 3 -5
BITMAP
0030
00E0
0180
0300
0600
0C00
0C00
1C00
1800
3800
3800
3000
7000
7000
7000
7000
E000
E000
E000
E000
E000
E000
E000
6000
7000
3000
1800
0E00
0600
ENDCHAR
STARTCHAR parenright
ENCODING 41
SWIDTH 420 0
DWIDTH 14 0
BBX 13 29 -2 -5
BITMAP
0700
0380
00C0
0060
0070
0030
0038
0038
0038
0038
0038
0038
0038
0078
0070
0070
0070
0070
00E0
00E0
00C0
01C0
0180
0380
0700
0E00
1C00
7000
C000
ENDCHAR
STARTCHAR asterisk
ENCODING 42
SWIDTH 510 0
DWIDTH 17 0
BBX 13 13 4 11
BITMAP
0100
0300
0300
0300
2220
F278
7DF0
0000
0E00
1B00
3180
7180
4080
ENDCHAR
STARTCHAR plus
ENCODING 43
SWIDTH 840 0
DWIDTH 28 0
BBX 20 20 4 0
BITMAP
006000
006000
006000
006000
006000
006000
006000
006000
006000
FFFFF0
FFFFF0
006000
006000
006000
006000
006000
006000
006000
006000
006000
ENDCHAR
STARTCHAR comma
ENCODING 44
SWIDTH 270 0
DWIDTH 9 0
BBX 6 10 -2 -6
BITMAP
18
3C
3C
3C
0C
08
18
10
20
C0
ENDCHAR
STARTCHAR minus
ENCODING 45
SWIDTH 330 0
DWIDTH 11 0
BBX 8 2 1 7
BITMAP
FF
FF
ENDCHAR
STARTCHAR period
ENCODING 46
SWIDTH 270 0
DWIDTH 9 0
BBX 4 4 1 0
BITMAP
60
F0
F0
60
ENDCHAR
STARTCHAR slash
ENCODING 47
SWIDTH 480 0
DWIDTH 16 0
BBX 21 25 -4 -3
BITMAP
000018
000030
000060
0000C0
0000C0
000180
000300
000600
000600
000C00
001800
003000
003000
006000
00C000
018000
030000
030000
060000
0C0000
180000
180000
300000
600000
C00000
ENDCHAR
STARTCHAR zero
ENCODING 48
SWIDTH 540 0
DWIDTH 18 0
BBX 16 22 1 0
BITMAP
00F0
03FC
071C
0E0E
1C06
1807
3807
3007
7007
7007
7007
E00E
E00E
E00E
E00E
E01C
E01C
6038
7070
38E0
3FC0
0F00
ENDCHAR
STARTCHAR one
ENCODING 49
SWIDTH 540 0
DWIDTH 18 0
BBX 11 22 2 0
BITMAP
00E0
0FE0
1FE0
00C0
01C0
01C0
01C0
01C0
0180
0380
0380
0380
0380
0300
0700
0700
0700
0700
0600
0600
0E00
FFC0
ENDCHAR
STARTCHAR two
ENCODING 50
SWIDTH 540 0
DWIDTH 18 0
BBX 18 22 -1 0
BITMAP
003E00
01FF00
030380
0701C0
0F01C0
0E01C0
0001C0
000380
000380
000700
000E00
001C00
003800
007000
00C000
038000
060180
1C0100
380300
7FFF00
FFFF00
FFFF00
ENDCHAR
STARTCHAR three
ENCODING 51
SWIDTH 540 0
DWIDTH 18 0
BBX 17 22 0 0
BITMAP
007C00
03FF00
070F00
0E0380
0E0380
0E0380
000380
000700
000E00
001C00
01E000
01FC00
001E00
000F00
000700
000700
000E00
E00E00
E01C00
F07800
3FE000
1F8000
ENDCHAR
STARTCHAR four
ENCODING 52
SWIDTH 540 0
DWIDTH 18 0
BBX 17 23 0 -1
BITMAP
000300
000700
000F00
001E00
003600
006E00
00CE00
018E00
030C00
060C00
0C0C00
181C00
301C00
601800
FFFF80
FFFF80
003800
003800
003000
003000
003000
007000
007000
ENDCHAR
STARTCHAR five
ENCODING 53
SWIDTH 540 0
DWIDTH 18 0
BBX 17 22 0 0
BITMAP
07FF80
07FF80
07FF00
060000
0C0000
0C0000
0C0000
0C0000
0C0000
0BF000
1FF800
003C00
001E00
000E00
000E00
000E00
000C00
601C00
E03800
E0E000
7FC000
3F0000
ENDCHAR
STARTCHAR six
ENCODING 54
SWIDTH 540 0
DWIDTH 18 0
BBX 15 23 1 0
BITMAP
000E
007E
01E0
0380
0600
0C00
1C00
3800
31F0
77F8
7C3C
701E
E00E
E00E
E00E
E00E
E00C
E01C
701C
7038
3870
1FC0
0F80
ENDCHAR
STARTCHAR seven
ENCODING 55
SWIDTH 540 0
DWIDTH 18 0
BBX 19 23 1 -1
BITMAP
1FFFE0
1FFFE0
1FFFC0
300180
300300
300700
000E00
000C00
001800
003800
007000
006000
00C000
01C000
018000
030000
060000
0E0000
0C0000
180000
300000
700000
E00000
ENDCHAR
STARTCHAR eight
ENCODING 56
SWIDTH 540 0
DWIDTH 18 0
BBX 16 22 1 0
BITMAP
00F0
03FC
070E
0E07
0C07
1C07
1C07
1C0E
1E0C
0F98
07E0
0DF8
387C
701E
600E
E00E
E00E
E01C
7018
7870
3FE0
0F80
ENDCHAR
STARTCHAR nine
ENCODING 57
SWIDTH 540 0
DWIDTH 18 0
BBX 16 24 1 -2
BITMAP
01F0
03F8
0E1C
1C0E
1807
3807
3007
7007
7007
7007
7006
780E
3C3E
1FEC
0F9C
0038
0030
0070
00E0
0180
0700
1E00
F800
4000
ENDCHAR
STARTCHAR colon
ENCODING 58
SWIDTH 330 0
DWIDTH 11 0
BBX 6 15 2 0
BITMAP
18
3C
3C
18
00
00
00
00
00
00
00
60
F0
F0
60
ENDCHAR
STARTCHAR semicolon
ENCODING 59
SWIDTH 330 0
DWIDTH 11 0
BBX 9 21 -1 -6
BITMAP
0300
0780
0780
0300
0000
0000
0000
0000
0000
0000
0000
0000
1C00
1E00
3E00
0600
0400
0C00
1800
3000
C000
ENDCHAR
STARTCHAR less
ENCODING 60
SWIDTH 840 0
DWIDTH 28 0
BBX 19 17 4 1
BITMAP
000020
0001E0
0007C0
003E00
00F800
07C000
1F0000
F80000
E00000
F80000
1F0000
07C000
00F800
003E00
0007C0
0001E0
000020
ENDCHAR
STARTCHAR equal
ENCODING 61
SWIDTH 840 0
DWIDTH 28 0
BBX 20 8 4 6
BITMAP
FFFFF0
FFFFF0
000000
000000
000000
000000
FFFFF0
FFFFF0
ENDCHAR
STARTCHAR greater
ENCODING 62
SWIDTH 840 0
DWIDTH 28 0
BBX 19 17 5 1
BITMAP
800000
F00000
7C0000
0F8000
03E000
007C00
001F00
0003E0
0000E0
0003E0
001F00
007C00
03E000
0F8000
7C0000
F00000
800000
ENDCHAR
STARTCHAR question
ENCODING 63
SWIDTH 480 0
DWIDTH 16 0
BBX 12 22 3 0
BITMAP
1FC0
71E0
F070
6070
0070
0070
00E0
00E0
01C0
0380
0F00
1C00
3000
3000
3000
3000
0000
0000
6000
F000
F000
6000
ENDCHAR
STARTCHAR at
ENCODING 64
SWIDTH 930 0
DWIDTH 31 0
BBX 26 28 3 -5
BITMAP
003FE000
01E03800
07000E00
0E000600
18000300
38000180
300FB180
6039E0C0
6060E0C0
60C0E0C0
C1C0E0C0
C1C0E0C0
C380C0C0
C380C180
C380C180
C381C180
C381C300
C383C200
E1C7C600
61FDF800
6070F000
70000000
38000000
1C000000
0E000600
07C07800
01FFE000
007F0000
ENDCHAR
STARTCHAR A
ENCODING 65
SWIDTH 600 0
DWIDTH 20 0
BBX 22 22 -3 0
BITMAP
000300
000700
000780
000F80
001B80
001B80
003180
0031C0
0061C0
00E1C0
00C1C0
0181C0
0180C0
03FFE0
0300E0
0600E0
0C00E0
0C00E0
180060
180070
300070
FE01FC
ENDCHAR
STARTCHAR B
ENCODING 66
SWIDTH 570 0
DWIDTH 19 0
BBX 19 22 -1 0
BITMAP
0FFF80
0383C0
0381E0
0380E0
0380E0
0380E0
0700C0
0701C0
070380
070F00
07FE00
0E0780
0E01C0
0E01C0
0E01C0
0E01C0
1C01C0
1C01C0
1C03C0
1C0780
1C1F00
FFFC00
ENDCHAR
STARTCHAR C
ENCODING 67
SWIDTH 600 0
DWIDTH 20 0
BBX 20 22 1 0
BITMAP
007FE0
03E0F0
070030
0E0020
1C0020
380020
380000
700000
700000
700000
E00000
E00000
E00000
E00000
E00000
E00000
E00180
700180
700180
380300
1E0700
07FE00
ENDCHAR
STARTCHAR D
ENCODING 68
SWIDTH 660 0
DWIDTH 22 0
BBX 21 22 -1 0
BITMAP
0FFF00
0387C0
0380E0
038070
030070
070038
070038
070038
070038
070038
0E0038
0E0038
0E0070
0E0070
0E0070
0C00E0
1C00E0
1C01C0
1C0380
1C0700
3C7E00
FFF000
ENDCHAR
STARTCHAR E
ENCODING 69
SWIDTH 540 0
DWIDTH 18 0
BBX 19 22 -1 0
BITMAP
0FFFE0
0380E0
0380E0
0380C0
0300C0
070000
070000
070200
070600
070600
07FE00
0E0400
0E0400
0E0C00
0E0000
0C0000
1C0000
1C0180
1C0180
1C0100
380300
FFFF00
ENDCHAR
STARTCHAR F
ENCODING 70
SWIDTH 510 0
DWIDTH 17 0
BBX 19 22 -1 0
BITMAP
0FFFE0
0380E0
0380E0
0380C0
0380C0
030000
070000
070200
070600
070600
07FC00
0E0C00
0E0C00
0E0C00
0E0000
0C0000
1C0000
1C0000
1C0000
1C0000
3C0000
FF0000
ENDCHAR
STARTCHAR G
ENCODING 71
SWIDTH 660 0
DWIDTH 22 0
BBX 21 22 1 0
BITMAP
003FF8
01E070
078030
0F0030
1E0030
3C0030
380000
780000
700000
700000
F00000
E00000
E00FF8
E001C0
E001C0
E001C0
E003C0
700380
700380
3C0380
1E0380
07FE00
ENDCHAR
STARTCHAR H
ENCODING 72
SWIDTH 720 0
DWIDTH 24 0
BBX 26 22 -1 0
BITMAP
0FF03FC0
03800E00
03800E00
03800E00
03800E00
03800E00
07001C00
07001C00
07001C00
07001C00
07FFFC00
0E003800
0E003800
0E003800
0E003800
0E003800
1C007000
1C007000
1C007000
1C007000
1C00F000
FF03FC00
ENDCHAR
STARTCHAR I
ENCODING 73
SWIDTH 330 0
DWIDTH 11 0
BBX 12 22 -1 0
BITMAP
0FF0
0380
0380
0380
0380
0380
0700
0700
0700
0700
0700
0E00
0E00
0E00
0E00
0E00
1C00
1C00
1C00
1C00
1C00
FF00
ENDCHAR
STARTCHAR J
ENCODING 74
SWIDTH 450 0
DWIDTH 15 0
BBX 17 22 -2 0
BITMAP
007F80
001E00
001C00
001C00
001C00
001C00
001800
003800
003800
003800
003800
003800
007000
007000
007000
007000
606000
60E000
60E000
E1C000
E3C000
FF0000
ENDCHAR
STARTCHAR K
ENCODING 75
SWIDTH 630 0
DWIDTH 21 0
BBX 23 22 -1 0
BITMAP
0FF1FE
038070
038060
0380C0
038180
030300
070600
070C00
071800
073000
067000
0FF000
0E3800
0E3800
0E1C00
0C1C00
1C0E00
1C0E00
1C0700
1C0700
3C0380
FF03F0
ENDCHAR
STARTCHAR L
ENCODING 76
SWIDTH 480 0
DWIDTH 16 0
BBX 16 22 -1 0
BITMAP
0FF0
0380
0380
0380
0380
0700
0700
0700
0700
0700
0600
0E00
0E00
0E00
0E00
0C00
1C03
1C03
1C03
1C06
3C06
FFFE
ENDCHAR
STARTCHAR M
ENCODING 77
SWIDTH 840 0
DWIDTH 28 0
BBX 30 22 -1 0
BITMAP
0FE001FC
03E001F0
03E00360
03E003E0
026006E0
02600CE0
06700CC0
067018C0
067019C0
067031C0
043031C0
0C3861C0
0C384180
0C38C380
0C398380
08398380
181B0380
181F0300
181E0700
181E0700
181C0700
FE083FC0
ENDCHAR
STARTCHAR N
ENCODING 78
SWIDTH 690 0
DWIDTH 23 0
BBX 25 22 -1 0
BITMAP
0F803F80
03C00E00
03C00C00
03E00C00
03E00C00
06700C00
06700800
06381800
06381800
061C1800
041C1800
0C0E1000
0C0E3000
0C0E3000
0C073000
08073000
1803B000
1803E000
1801E000
1801E000
3800E000
FE00E000
ENDCHAR
STARTCHAR O
ENCODING 79
SWIDTH 720 0
DWIDTH 24 0
BBX 22 22 1 0
BITMAP
007F80
03C1E0
070070
0E0038
1C0038
3C001C
38001C
70001C
70001C
70001C
E0001C
E0001C
E0003C
E00038
E00038
E00078
E00070
7000E0
7001E0
3803C0
1E0F00
07FC00
ENDCHAR
STARTCHAR P
ENCODING 80
SWIDTH 540 0
DWIDTH 18 0
BBX 19 22 -1 0
BITMAP
0FFF00
0387C0
0381C0
0380E0
0380E0
0300E0
0700E0
0700E0
0701C0
0701C0
060380
0E0F00
0FF800
0E0000
0E0000
0C0000
1C0000
1C0000
1C0000
1C0000
3C0000
FF0000
ENDCHAR
STARTCHAR Q
ENCODING 81
SWIDTH 720 0
DWIDTH 24 0
BBX 23 27 1 -5
BITMAP
007F80
03C1E0
070070
0E0038
1C0038
3C001C
38001C
70001C
70001C
70001C
E0001C
E0001C
E0003C
E00038
E00038
E00078
F00070
7000E0
7001E0
3803C0
1E0F00
07FE00
000E00
000F00
0007C2
0003FC
0001F0
ENDCHAR
STARTCHAR R
ENCODING 82
SWIDTH 600 0
DWIDTH 20 0
BBX 21 22 -1 0
BITMAP
0FFF00
0387C0
0381E0
0380E0
0380E0
0380E0
0700E0
0700C0
0701C0
070380
070F00
0FF800
0E1E00
0E0E00
0E0700
0E0700
1C0700
1C0380
1C0380
1C0380
1C01C0
FF01F8
ENDCHAR
STARTCHAR S
ENCODING 83
SWIDTH 540 0
DWIDTH 18 0
BBX 17 22 0 0
BITMAP
00FF00
038380
060180
0E0180
1C0180
1C0100
1C0000
1E0000
0F0000
0FC000
03F000
01FC00
007E00
001F00
000F00
000700
600700
600700
600E00
600E00
F03800
3FE000
ENDCHAR
STARTCHAR T
ENCODING 84
SWIDTH 540 0
DWIDTH 18 0
BBX 19 22 1 0
BITMAP
7FFFE0
60E0E0
E0E0C0
C0E0C0
C0E0C0
01C000
01C000
01C000
01C000
01C000
038000
038000
038000
038000
038000
030000
070000
070000
070000
070000
0F0000
3FC000
ENDCHAR
STARTCHAR U
ENCODING 85
SWIDTH 660 0
DWIDTH 22 0
BBX 21 22 2 0
BITMAP
FF03F8
1C0060
180040
3800C0
3800C0
3800C0
380080
300080
700180
700180
700180
700100
700100
E00300
E00300
E00300
E00200
E00600
F00C00
783C00
3FF000
0FC000
ENDCHAR
STARTCHAR V
ENCODING 86
SWIDTH 600 0
DWIDTH 20 0
BBX 21 22 1 0
BITMAP
FE01F8
380060
3800E0
3800C0
180180
1C0180
1C0300
1C0300
1C0600
1C0600
0C0C00
0C0800
0E1800
0E3000
0E3000
0E6000
066000
06C000
07C000
078000
070000
070000
ENDCHAR
STARTCHAR W
ENCODING 87
SWIDTH 900 0
DWIDTH 30 0
BBX 30 22 2 0
BITMAP
FE0380FC
38038030
38078060
38078060
380F8060
380D80C0
181980C0
18198180
1C31C180
1C31C300
1C61C300
1C61C600
1C41C600
1CC1CC00
1C80CC00
1D80D800
1D80D800
1F00F000
0F00F000
0E00F000
0E00E000
0C00E000
ENDCHAR
STARTCHAR X
ENCODING 88
SWIDTH 570 0
DWIDTH 19 0
BBX 24 22 -3 0
BITMAP
07F87F
01C018
01C038
00E030
00E060
0070C0
007180
003B00
003E00
001C00
001C00
001C00
003E00
006E00
00C700
018700
038380
070380
0E0180
1C01C0
1801C0
FF07F8
ENDCHAR
STARTCHAR Y
ENCODING 89
SWIDTH 540 0
DWIDTH 18 0
BBX 20 22 1 0
BITMAP
FF07F0
3801C0
1C0180
1C0300
1C0600
0C0C00
0E0C00
0E1800
063000
077000
076000
03C000
038000
038000
038000
038000
070000
070000
070000
070000
070000
3FC000
ENDCHAR
STARTCHAR Z
ENCODING 90
SWIDTH 570 0
DWIDTH 19 0
BBX 20 22 -1 0
BITMAP
07FFF0
0600E0
0601C0
0C03C0
0C0780
000700
000E00
001E00
003C00
007800
007000
00E000
01E000
03C000
078000
070000
0E0180
1E0180
3C0100
380300
700300
FFFF00
ENDCHAR
STARTCHAR bracketleft
ENCODING 91
SWIDTH 420 0
DWIDTH 14 0
BBX 13 28 2 -5
BITMAP
07F8
0700
0600
0600
0E00
0E00
0E00
0C00
0C00
1C00
1C00
1C00
1800
1800
1800
3800
3800
3800
3000
3000
7000
7000
7000
6000
6000
E000
E000
FF00
ENDCHAR
STARTCHAR backslash
ENCODING 92
SWIDTH 480 0
DWIDTH 16 0
BBX 15 25 1 -3
BITMAP
C000
6000
6000
3000
3000
1800
1800
0C00
0C00
0600
0200
0300
0100
0180
00C0
00C0
0060
0060
0030
0030
0018
0018
000C
000C
0006
ENDCHAR
STARTCHAR bracketright
ENCODING 93
SWIDTH 420 0
DWIDTH 14 0
BBX 13 28 -1 -5
BITMAP
07F8
0038
0038
0030
0030
0070
0070
0070
0060
0060
00E0
00E0
00E0
00C0
00C0
00C0
01C0
01C0
01C0
0180
0180
0380
0380
0380
0300
0300
0300
FF00
ENDCHAR
STARTCHAR asciicircum
ENCODING 94
SWIDTH 990 0
DWIDTH 33 0
BBX 20 9 6 14
BITMAP
00F000
01F800
039C00
070E00
0E0700
1C0380
3801C0
600060
C00030
ENDCHAR
STARTCHAR underscore
ENCODING 95
SWIDTH 510 0
DWIDTH 17 0
BBX 17 2 0 -8
BITMAP
FFFF80
FFFF80
ENDCHAR
STARTCHAR quoteleft
ENCODING 96
SWIDTH 210 0
DWIDTH 7 0
BBX 5 9 3 14
BITMAP
18
10
20
60
40
C0
F0
F0
60
ENDCHAR
STARTCHAR a
ENCODING 97
SWIDTH 510 0
DWIDTH 17 0
BBX 15 16 1 0
BITMAP
03FC
0E3C
1C18
3818
3018
7018
7038
E030
E030
E030
E030
E070
E070
71F0
7F7E
1E38
ENDCHAR
STARTCHAR b
ENCODING 98
SWIDTH 510 0
DWIDTH 17 0
BBX 14 24 1 0
BITMAP
0E00
7E00
0C00
0C00
0C00
1C00
1C00
1C00
18E0
1BF8
3E38
381C
381C
301C
301C
701C
701C
7018
7038
6030
E070
E060
F1C0
3F00
ENDCHAR
STARTCHAR c
ENCODING 99
SWIDTH 390 0
DWIDTH 13 0
BBX 12 16 0 0
BITMAP
03E0
0E70
1830
3820
7000
7000
6000
E000
E000
E000
E000
E010
F030
7860
3FC0
1F00
ENDCHAR
STARTCHAR d
ENCODING 100
SWIDTH 510 0
DWIDTH 17 0
BBX 16 24 0 0
BITMAP
000F
003F
0007
0006
000E
000E
000E
000E
03FC
0E3C
1C1C
381C
301C
7018
7038
E038
E038
E038
E030
E070
F070
71F0
7F7F
1C3C
ENDCHAR
STARTCHAR e
ENCODING 101
SWIDTH 420 0
DWIDTH 14 0
BBX 12 16 1 0
BITMAP
03E0
0C70
1870
3070
30E0
70E0
6380
FC00
E000
E000
E000
E010
7030
78C0
3F80
1E00
ENDCHAR
STARTCHAR f
ENCODING 102
SWIDTH 270 0
DWIDTH 9 0
BBX 18 31 -5 -7
BITMAP
000780
000BC0
0019C0
003000
003000
007000
006000
006000
00E000
03FE00
00E000
00C000
00C000
00C000
00C000
01C000
01C000
01C000
018000
018000
018000
018000
038000
038000
030000
030000
060000
060000
EC0000
F80000
F00000
ENDCHAR
STARTCHAR g
ENCODING 103
SWIDTH 480 0
DWIDTH 16 0
BBX 17 23 -1 -7
BITMAP
03E000
063F80
1C1C00
1C1C00
381C00
381C00
381C00
383800
183800
1C7000
07C000
040000
0C0000
0E0000
0FC000
33F000
607C00
C03C00
C01C00
C01C00
E01800
707000
3FC000
ENDCHAR
STARTCHAR h
ENCODING 104
SWIDTH 540 0
DWIDTH 18 0
BBX 16 24 1 0
BITMAP
0E00
7E00
0E00
0E00
0C00
0C00
1C00
1C00
1878
19FC
1B1C
3C1C
381C
301C
3018
3018
7038
7038
7030
6030
6070
E078
E07F
E03C
ENDCHAR
STARTCHAR i
ENCODING 105
SWIDTH 300 0
DWIDTH 10 0
BBX 8 24 1 0
BITMAP
06
0F
0F
06
00
00
00
00
1C
FC
1C
1C
18
18
38
38
38
30
30
70
70
70
7F
3C
ENDCHAR
STARTCHAR j
ENCODING 106
SWIDTH 270 0
DWIDTH 9 0
BBX 12 31 -4 -7
BITMAP
0060
0070
0070
0060
0000
0000
0000
0000
01E0
07E0
00E0
00C0
00C0
00C0
00C0
01C0
01C0
0180
0180
0180
0180
0380
0380
0300
0300
0300
0600
0600
CC00
F800
F000
ENDCHAR
STARTCHAR k
ENCODING 107
SWIDTH 510 0
DWIDTH 17 0
BBX 15 24 1 0
BITMAP
0F00
7E00
0E00
0E00
0E00
0C00
0C00
1C00
1C1C
183E
186C
38C0
3980
3300
3700
3F80
7380
71C0
71C0
60E0
60E0
E070
E07E
E03C
ENDCHAR
STARTCHAR l
ENCODING 108
SWIDTH 270 0
DWIDTH 9 0
BBX 7 24 1 0
BITMAP
1E
7E
0E
0C
1C
1C
1C
18
18
38
38
38
30
30
70
70
60
60
E0
E0
E0
E0
FE
78
ENDCHAR
STARTCHAR m
ENCODING 109
SWIDTH 810 0
DWIDTH 27 0
BBX 25 16 1 0
BITMAP
1C783C00
FCFCFE00
1B1D8E00
1C1E0E00
381C0E00
381C0E00
381C0C00
301C0C00
30181C00
70381C00
70381800
70381800
60383800
60303C00
E0703F80
E0701E00
ENDCHAR
STARTCHAR n
ENCODING 110
SWIDTH 540 0
DWIDTH 18 0
BBX 16 16 1 0
BITMAP
3C78
F9FC
1B1C
3C1C
381C
381C
3018
3018
7038
7038
7030
7030
6030
6078
E07F
E03C
ENDCHAR
STARTCHAR o
ENCODING 111
SWIDTH 510 0
DWIDTH 17 0
BBX 14 16 1 0
BITMAP
07E0
0C70
1838
381C
701C
701C
601C
E01C
E01C
E018
E038
E038
E030
7060
38C0
1F00
ENDCHAR
STARTCHAR p
ENCODING 112
SWIDTH 510 0
DWIDTH 17 0
BBX 17 23 -2 -7
BITMAP
071E00
1F7F00
038700
070380
070380
060380
060380
060380
060380
0E0300
0E0700
0C0700
0C0E00
0C0C00
1E3800
1FE000
1C0000
180000
180000
180000
380000
380000
FF0000
ENDCHAR
STARTCHAR q
ENCODING 113
SWIDTH 510 0
DWIDTH 17 0
BBX 14 23 1 -7
BITMAP
03EC
0E3C
1C18
3818
3018
7018
7038
E038
E038
E030
E030
E030
E070
70F0
3F70
1E60
0060
0060
00E0
00E0
00E0
00E0
03F8
ENDCHAR
STARTCHAR r
ENCODING 114
SWIDTH 390 0
DWIDTH 13 0
BBX 12 16 1 0
BITMAP
38F0
F9F0
1B70
1E60
3400
3800
3000
3000
3000
7000
7000
7000
6000
6000
E000
E000
ENDCHAR
STARTCHAR s
ENCODING 115
SWIDTH 360 0
DWIDTH 12 0
BBX 11 16 -1 0
BITMAP
07C0
08E0
1860
1800
3800
1C00
1E00
0F00
0780
03C0
01C0
40C0
E0C0
E180
E180
3E00
ENDCHAR
STARTCHAR t
ENCODING 116
SWIDTH 330 0
DWIDTH 11 0
BBX 10 19 1 0
BITMAP
0C00
1C00
1800
1800
FFC0
3800
3000
3000
7000
7000
7000
6000
6000
E000
E000
E000
E100
FF00
7800
ENDCHAR
STARTCHAR u
ENCODING 117
SWIDTH 540 0
DWIDTH 18 0
BBX 16 16 1 0
BITMAP
1C0E
FC0E
1C0E
180C
180C
381C
381C
3018
3018
3018
7038
7038
7070
70F8
7F3F
3C3C
ENDCHAR
STARTCHAR v
ENCODING -1 118
SWIDTH 450 0
DWIDTH 15 0
BBX 14 16 0 0
BITMAP
381C
F81C
1C1C
1C1C
1C18
1C18
0C10
0C30
0C60
0C40
0CC0
0D80
0D00
0E00
0E00
0C00
ENDCHAR
STARTCHAR w
ENCODING 119
SWIDTH 720 0
DWIDTH 24 0
BBX 23 16 0 0
BITMAP
38000E
F80C0E
381C0E
181C0E
183C0C
182C0C
186C18
184C18
18CC30
1C8C20
1D0E40
1D0EC0
1E0E80
1E0F00
1C0E00
1C0E00
ENDCHAR
STARTCHAR x
ENCODING 120
SWIDTH 480 0
DWIDTH 16 0
BBX 18 16 -2 0
BITMAP
0F0380
1F07C0
078FC0
038880
019000
01B000
01E000
00E000
01E000
01E000
036000
027000
447000
FC3800
F83F00
701C00
ENDCHAR
STARTCHAR y
ENCODING 121
SWIDTH 480 0
DWIDTH 16 0
BBX 20 23 -4 -7
BITMAP
070060
1F80F0
0380E0
0181C0
01C180
01C300
00C300
00C200
00E600
00E400
006C00
006800
006800
007000
007000
002000
006000
00C000
008000
418000
E70000
FE0000
780000
ENDCHAR
STARTCHAR z
ENCODING 122
SWIDTH 450 0
DWIDTH 15 0
BBX 16 16 -1 0
BITMAP
0787
0FFE
10EC
3018
3830
1860
00E0
01C0
0180
0308
061C
0C0C
1804
378C
7FF8
E0E0
ENDCHAR
STARTCHAR braceleft
ENCODING 123
SWIDTH 480 0
DWIDTH 16 0
BBX 12 28 2 -5
BITMAP
00F0
03C0
0300
0700
0700
0700
0700
0700
0700
0700
0700
0E00
1C00
E000
1C00
0E00
0700
0700
0700
0700
0700
0700
0700
0700
0700
0700
0380
00F0
ENDCHAR
STARTCHAR bar
ENCODING 124
SWIDTH 510 0
DWIDTH 17 0
BBX 2 33 8 -8
BITMAP
C0
C0
C0
C0
C0
C0
C0
C0
C0
C0
C0
C0
C0
C0
C0
C0
C0
C0
C0
C0
C0
C0
C0
C0
C0
C0
C0
C0
C0
C0
C0
C0
C0
ENDCHAR
STARTCHAR braceright
ENCODING 125
SWIDTH 480 0
DWIDTH 16 0
BBX 12 28 2 -5
BITMAP
F000
3C00
0C00
0E00
0E00
0E00
0E00
0E00
0E00
0E00
0E00
0700
0380
0070
0380
0700
0E00
0E00
0E00
0E00
0E00
0E00
0E00
0E00
0E00
0E00
1C00
F800
ENDCHAR
STARTCHAR asciitilde
ENCODING 126
SWIDTH 990 0
DWIDTH 33 0
BBX 19 4 7 17
BITMAP
1F0060
3FE0C0
60FF80
C01F00
ENDCHAR
STARTCHAR Aogonek
ENCODING 161
SWIDTH 600 0
DWIDTH 20 0
BBX 22 26 -3 -4
BITMAP
000300
000700
000780
000F80
001B80
001B80
003180
0031C0
0061C0
00E1C0
00C1C0
0181C0
0180C0
03FFE0
0300E0
0600E0
0C00E0
0C00E0
180060
180070
300070
FE01FC
000070
000070
00007C
00003C
ENDCHAR
STARTCHAR breve
ENCODING 162
SWIDTH 390 0
DWIDTH 13 0
BBX 9 5 2 19
BITMAP
8080
8080
8100
C300
7E00
ENDCHAR
STARTCHAR Lslash
ENCODING 163
SWIDTH 480 0
DWIDTH 16 0
BBX 16 22 -1 0
BITMAP
0FF0
0380
0380
0380
0380
0700
0720
0760
07E0
07C0
0F80
1F00
3E00
7E00
6E00
4C00
1C03
1C03
1C03
1C06
3C06
FFFE
ENDCHAR
STARTCHAR currency
ENCODING 164
SWIDTH 600 0
DWIDTH 20 0
BBX 18 18 1 5
BITMAP
400080
E001C0
71E380
3FFF00
1E1E00
1C0600
180600
300300
300300
300300
300300
180600
180E00
1E1E00
3FFF00
71E380
E001C0
400080
ENDCHAR
STARTCHAR Lcaron
ENCODING 165
SWIDTH 480 0
DWIDTH 16 0
BBX 19 22 -1 0
BITMAP
0FF1C0
0383E0
0383E0
038060
0380C0
0700C0
070180
070300
070600
070000
060000
0E0000
0E0000
0E0000
0E0000
0C0000
1C0300
1C0300
1C0300
1C0600
3C0600
FFFE00
ENDCHAR
STARTCHAR Sacute
ENCODING 166
SWIDTH 540 0
DWIDTH 18 0
BBX 18 28 -1 0
BITMAP
0001C0
000380
000700
000E00
000000
000000
00FF00
038380
060180
0E0180
1C0180
1C0100
1C0000
1E0000
0F0000
0FC000
03F000
01FC00
007E00
001F00
000F00
000700
600700
600700
600E00
600E00
F03800
3FE000
ENDCHAR
STARTCHAR section
ENCODING 167
SWIDTH 510 0
DWIDTH 17 0
BBX 16 29 0 -5
BITMAP
00FF
0387
0303
0603
0603
0700
0780
07C0
03F0
01F8
063C
0C1E
1C0E
180E
380E
380C
3C1C
3C38
1F70
0FC0
03E0
01F0
0070
0030
6030
6030
6060
F0C0
7F80
ENDCHAR
STARTCHAR dieresis
ENCODING 168
SWIDTH 510 0
DWIDTH 17 0
BBX 9 3 6 20
BITMAP
E380
E380
E380
ENDCHAR
STARTCHAR Scaron
ENCODING 169
SWIDTH 540 0
DWIDTH 18 0
BBX 17 31 0 0
BITMAP
00C100
004300
006600
006400
003C00
003800
000000
000000
000000
00FF80
038380
0E0380
0C0300
1C0300
1C0000
1C0000
1E0000
0F0000
0FC000
03F000
00F800
007C00
001E00
000E00
000E00
600E00
600E00
601C00
601800
F87000
7FC000
ENDCHAR
STARTCHAR Scedilla
ENCODING 170
SWIDTH 540 0
DWIDTH 18 0
BBX 17 29 0 -7
BITMAP
00FF00
038380
060180
0E0180
1C0180
1C0100
1C0000
1E0000
0F0000
0FC000
03F000
01FC00
007E00
001F00
000F00
000700
600700
600700
600E00
600E00
F03800
3FE000
030000
020000
03C000
00C000
00C000
01C000
1F0000
ENDCHAR
STARTCHAR Tcaron
ENCODING 171
SWIDTH 540 0
DWIDTH 18 0
BBX 19 31 1 0
BITMAP
018200
008600
00CC00
00C800
007800
007000
000000
000000
000000
7FFFE0
60E0E0
E0E0C0
C0E0C0
C0E0C0
01C000
01C000
01C000
01C000
01C000
038000
038000
038000
038000
038000
030000
070000
070000
070000
070000
0F0000
3FC000
ENDCHAR
STARTCHAR Zacute
ENCODING 172
SWIDTH 570 0
DWIDTH 19 0
BBX 20 28 -1 0
BITMAP
0001C0
000380
000700
000E00
000000
000000
07FFF0
0600E0
0601C0
0C03C0
0C0780
000700
000E00
001E00
003C00
007800
007000
00E000
01E000
03C000
078000
070000
0E0180
1E0180
3C0100
380300
700300
FFFF00
ENDCHAR
STARTCHAR hyphen
ENCODING 173
SWIDTH 330 0
DWIDTH 11 0
BBX 8 2 1 7
BITMAP
FF
FF
ENDCHAR
STARTCHAR Zcaron
ENCODING 174
SWIDTH 540 0
DWIDTH 18 0
BBX 20 32 -1 -1
BITMAP
006080
002180
003300
003200
001E00
001C00
000000
000000
000070
07FFF0
0600E0
0601C0
0C03C0
0C0780
000700
000E00
001C00
003C00
007800
007000
00E000
01C000
03C000
038000
070000
0E0180
1E0180
3C0300
380300
700300
FFFF00
E00000
ENDCHAR
STARTCHAR Zdotaccent
ENCODING 175
SWIDTH 570 0
DWIDTH 19 0
BBX 20 28 -1 0
BITMAP
000C00
001E00
001E00
000C00
000000
000000
07FFF0
0600E0
0601C0
0C03C0
0C0780
000700
000E00
001E00
003C00
007800
007000
00E000
01E000
03C000
078000
070000
0E0180
1E0180
3C0100
380300
700300
FFFF00
ENDCHAR
STARTCHAR degree
ENCODING 176
SWIDTH 330 0
DWIDTH 11 0
BBX 9 9 1 14
BITMAP
3E00
6300
C180
8080
8080
8080
C180
6300
3E00
ENDCHAR
STARTCHAR aogonek
ENCODING 177
SWIDTH 510 0
DWIDTH 17 0
BBX 15 20 1 -4
BITMAP
03FC
0E3C
1C18
3818
3018
7018
7038
E030
E030
E030
E030
E070
E070
71F0
7F7E
1E38
0038
0030
007E
007C
ENDCHAR
STARTCHAR ogonek
ENCODING 178
SWIDTH 330 0
DWIDTH 11 0
BBX 5 7 4 -7
BITMAP
10
30
60
E0
E0
E8
78
ENDCHAR
STARTCHAR lslash
ENCODING 179
SWIDTH 270 0
DWIDTH 9 0
BBX 9 24 0 0
BITMAP
0F00
3F00
0700
0600
0E00
0E00
0E00
0C00
0C80
1D80
1F00
1E00
3C00
7800
F800
B800
3000
3000
7000
7000
7000
7000
7F00
3C00
ENDCHAR
STARTCHAR acute
ENCODING 180
SWIDTH 510 0
DWIDTH 17 0
BBX 8 6 9 18
BITMAP
0F
1C
18
30
60
C0
ENDCHAR
STARTCHAR lcaron
ENCODING 181
SWIDTH 270 0
DWIDTH 9 0
BBX 13 24 1 0
BITMAP
1E70
7EF8
0EF8
0C18
1C30
1C30
1C60
18C0
1980
3800
3800
3800
3000
3000
7000
7000
6000
6000
E000
E000
E000
E000
FE00
7800
ENDCHAR
STARTCHAR sacute
ENCODING 182
SWIDTH 360 0
DWIDTH 12 0
BBX 12 21 -2 0
BITMAP
0070
00E0
01C0
0000
0000
07C0
08E0
1860
1800
3800
1C00
1E00
0F00
0780
03C0
01C0
40C0
E0C0
E180
E180
3E00
ENDCHAR
STARTCHAR caron
ENCODING 183
SWIDTH 390 0
DWIDTH 13 0
BBX 9 6 1 18
BITMAP
C100
4300
6600
6400
3C00
3800
ENDCHAR
STARTCHAR cedilla
ENCODING 184
SWIDTH 390 0
DWIDTH 13 0
BBX 7 7 4 -7
BITMAP
18
10
1E
06
06
0E
F8
ENDCHAR
STARTCHAR scaron
ENCODING 185
SWIDTH 360 0
DWIDTH 12 0
BBX 14 24 -1 0
BITMAP
0608
0218
0330
0320
01E0
01C0
0000
0000
03C0
0CF0
0C70
1C20
1C00
1C00
1E00
0F00
07C0
03C0
01E0
00E0
70E0
F0E0
71C0
1F00
ENDCHAR
STARTCHAR scedilla
ENCODING 186
SWIDTH 360 0
DWIDTH 12 0
BBX 11 23 -1 -7
BITMAP
07C0
08E0
1860
1800
3800
1C00
1E00
0F00
0780
03C0
01C0
40C0
E0C0
E180
E180
3E00
0C00
0800
0F00
0300
0300
0700
7C00
ENDCHAR
STARTCHAR tcaron
ENCODING 187
SWIDTH 330 0
DWIDTH 11 0
BBX 14 21 1 0
BITMAP
0038
007C
0C7C
1C0C
1818
1818
FFF0
3860
30C0
3000
7000
7000
7000
6000
6000
E000
E000
E000
E100
FF00
7800
ENDCHAR
STARTCHAR zacute
ENCODING 188
SWIDTH 450 0
DWIDTH 15 0
BBX 16 21 -1 0
BITMAP
000E
001C
0038
0000
0000
0787
0FFE
10EC
3018
3830
1860
00E0
01C0
0180
0308
061C
0C0C
1804
378C
7FF8
E0E0
ENDCHAR
STARTCHAR hungarumlaut
ENCODING 189
SWIDTH 510 0
DWIDTH 17 0
BBX 13 6 1 18
BITMAP
0670
0CE0
1980
3300
6600
4800
ENDCHAR
STARTCHAR zcaron
ENCODING 190
SWIDTH 450 0
DWIDTH 15 0
BBX 15 25 -1 -1
BITMAP
0304
010C
0198
0190
00F0
00E0
0000
0000
0F06
1FEC
31F8
2010
3020
3860
10C0
0180
0100
0210
0438
081C
1008
2F08
3F90
C1E0
8000
ENDCHAR
STARTCHAR zdotaccent
ENCODING 191
SWIDTH 450 0
DWIDTH 15 0
BBX 16 22 -1 0
BITMAP
0030
0078
0078
0030
0000
0000
0787
0FFE
10EC
3018
3830
1860
00E0
01C0
0180
0308
061C
0C0C
1804
378C
7FF8
E0E0
ENDCHAR
STARTCHAR Racute
ENCODING 192
SWIDTH 600 0
DWIDTH 20 0
BBX 21 31 -1 0
BITMAP
0003C0
000700
000600
000C00
001800
003000
000000
000000
000000
0FFF00
0387C0
0381E0
0380E0
0380E0
0380E0
0700E0
0700C0
0701C0
070380
070F00
0FF800
0E1E00
0E0E00
0E0700
0E0700
1C0700
1C0380
1C0380
1C0380
1C01C0
FF01F8
ENDCHAR
STARTCHAR Aacute
ENCODING 193
SWIDTH 600 0
DWIDTH 20 0
BBX 23 31 -3 0
BITMAP
00001E
000038
000030
000060
0000C0
000180
000000
000000
000000
000300
000700
000780
000F80
001B80
001B80
003180
0031C0
0061C0
00E1C0
00C1C0
0181C0
0180C0
03FFE0
0300E0
0600E0
0C00E0
0C00E0
180060
180070
300070
FE01FC
ENDCHAR
STARTCHAR Acircumflex
ENCODING 194
SWIDTH 600 0
DWIDTH 20 0
BBX 22 31 -3 0
BITMAP
0000E0
0001E0
000360
000630
000C30
001818
000000
000000
000000
000300
000700
000780
000F80
001B80
001B80
003180
0031C0
0061C0
00E1C0
00C1C0
0181C0
0180C0
03FFE0
0300E0
0600E0
0C00E0
0C00E0
180060
180070
300070
FE01FC
ENDCHAR
STARTCHAR Abreve
ENCODING 195
SWIDTH 600 0
DWIDTH 20 0
BBX 22 31 -3 0
BITMAP
000808
000808
000810
000C30
0007E0
000000
000000
000000
000000
000300
000700
000780
000F80
001B80
001B80
003180
0031C0
0061C0
00E1C0
00C1C0
0181C0
0180C0
03FFE0
0300E0
0600E0
0C00E0
0C00E0
180060
180070
300070
FE01FC
ENDCHAR
STARTCHAR Adieresis
ENCODING 196
SWIDTH 600 0
DWIDTH 20 0
BBX 22 29 -3 0
BITMAP
001C70
001C70
001C70
000000
000000
000000
000000
000300
000780
000780
000F80
001B80
001B80
003180
0031C0
0061C0
00E1C0
00C1C0
0181C0
0180C0
03FFE0
0700E0
0600E0
0C00E0
0C00E0
180070
380070
380070
FE01FC
ENDCHAR
STARTCHAR Lacute
ENCODING 197
SWIDTH 480 0
DWIDTH 16 0
BBX 17 31 -1 0
BITMAP
000780
000E00
000C00
001800
003000
006000
000000
000000
000000
0FF000
038000
038000
038000
038000
070000
070000
070000
070000
070000
060000
0E0000
0E0000
0E0000
0E0000
0C0000
1C0300
1C0300
1C0300
1C0600
3C0600
FFFE00
ENDCHAR
STARTCHAR Cacute
ENCODING 198
SWIDTH 600 0
DWIDTH 20 0
BBX 20 28 1 0
BITMAP
0000E0
0001C0
000380
000700
000000
000000
007FE0
03E0F0
070030
0E0020
1C0020
380020
380000
700000
700000
700000
E00000
E00000
E00000
E00000
E00000
E00000
E00180
700180
700180
380300
1E0700
07FE00
ENDCHAR
STARTCHAR Ccedilla
ENCODING 199
SWIDTH 600 0
DWIDTH 20 0
BBX 20 29 1 -7
BITMAP
007FE0
03E0F0
070030
0E0020
1C0020
380020
380000
700000
700000
700000
E00000
E00000
E00000
E00000
E00000
E00000
E00180
700180
700180
380300
1E0700
07FE00
018000
010000
01E000
006000
006000
00E000
0F8000
ENDCHAR
STARTCHAR Ccaron
ENCODING 200
SWIDTH 600 0
DWIDTH 20 0
BBX 20 31 1 0
BITMAP
001820
000860
000CC0
000C80
000780
000700
000000
000000
000000
007FE0
03E0F0
070030
0E0020
1C0020
380020
380000
700000
700000
700000
E00000
E00000
E00000
E00000
E00000
E00000
E00180
700180
700180
380300
1E0700
07FE00
ENDCHAR
STARTCHAR Eacute
ENCODING 201
SWIDTH 540 0
DWIDTH 18 0
BBX 20 31 -1 0
BITMAP
0000F0
0001C0
000180
000300
000600
000C00
000000
000000
000000
0FFFE0
0380E0
0380E0
0380C0
0300C0
070000
070000
070200
070600
070600
07FE00
0E0400
0E0400
0E0C00
0E0000
0C0000
1C0000
1C0180
1C0180
1C0100
380300
FFFF00
ENDCHAR
STARTCHAR Eogonek
ENCODING 202
SWIDTH 540 0
DWIDTH 18 0
BBX 19 26 -1 -4
BITMAP
0FFFE0
0380E0
0380E0
0380C0
0300C0
070000
070000
070200
070600
070600
07FE00
0E0400
0E0400
0E0C00
0E0000
0C0000
1C0000
1C0180
1C0180
1C0100
380300
FFFF00
001C00
001C00
001F00
000F00
ENDCHAR
STARTCHAR Edieresis
ENCODING 203
SWIDTH 540 0
DWIDTH 18 0
BBX 19 29 -1 0
BITMAP
00E380
00E380
00E380
000000
000000
000000
000020
0FFFE0
0380E0
038040
038040
030040
070000
070000
070200
070600
070600
0FFC00
0E0400
0E0400
0E0400
0C0000
0C0000
1C0000
1C0180
1C0180
1C0100
380300
FFFF00
ENDCHAR
STARTCHAR Ecaron
ENCODING 204
SWIDTH 540 0
DWIDTH 18 0
BBX 19 31 -1 0
BITMAP
006080
002180
003300
003200
001E00
001C00
000000
000000
000000
0FFFE0
0380E0
0380E0
0380C0
0300C0
070000
070000
070200
070600
070600
07FE00
0E0400
0E0400
0E0C00
0E0000
0C0000
1C0000
1C0180
1C0180
1C0100
380300
FFFF00
ENDCHAR
STARTCHAR Iacute
ENCODING 205
SWIDTH 330 0
DWIDTH 11 0
BBX 16 31 -1 0
BITMAP
000F
001C
0018
0030
0060
00C0
0000
0000
0000
0FF0
0380
0380
0380
0380
0380
0700
0700
0700
0700
0700
0E00
0E00
0E00
0E00
0E00
1C00
1C00
1C00
1C00
1C00
FF00
ENDCHAR
STARTCHAR Icircumflex
ENCODING 206
SWIDTH 330 0
DWIDTH 11 0
BBX 14 31 -1 0
BITMAP
0070
00F0
01B0
0318
0618
0C0C
0000
0000
0000
0FF0
0380
0380
0380
0380
0380
0700
0700
0700
0700
0700
0E00
0E00
0E00
0E00
0E00
1C00
1C00
1C00
1C00
1C00
FF00
ENDCHAR
STARTCHAR Dcaron
ENCODING 207
SWIDTH 660 0
DWIDTH 22 0
BBX 21 31 -1 0
BITMAP
006080
002180
003300
003200
001E00
001C00
000000
000000
000000
0FFF00
0387C0
0380E0
038070
030070
070038
070038
070038
070038
070038
0E0038
0E0038
0E0070
0E0070
0E0070
0C00E0
1C00E0
1C01C0
1C0380
1C0700
3C7E00
FFF000
ENDCHAR
STARTCHAR Eth
ENCODING 208
SWIDTH 660 0
DWIDTH 22 0
BBX 21 22 -1 0
BITMAP
0FFF00
0387C0
0380E0
038070
030070
070038
070038
070038
070038
070038
3FF038
0E0038
0E0070
0E0070
0E0070
1C00E0
1C00E0
1C01C0
1C0380
1C0F00
3C7E00
FFF000
ENDCHAR
STARTCHAR Nacute
ENCODING 209
SWIDTH 690 0
DWIDTH 23 0
BBX 25 27 -1 0
BITMAP
0000E000
0001C000
00038000
00070000
00000000
0F803F80
03C00E00
03C00C00
03E00C00
03E00C00
06700C00
06700800
06381800
06381800
061C1800
041C1800
0C0E1000
0C0E3000
0C0E3000
0C073000
08073000
1803B000
1803E000
1801E000
1801E000
3800E000
FE00E000
ENDCHAR
STARTCHAR Ncaron
ENCODING 210
SWIDTH 690 0
DWIDTH 23 0
BBX 25 31 -1 0
BITMAP
00030400
00010C00
00019800
00019000
0000F000
0000E000
00000000
00000000
00000000
0F803F80
03C00E00
03C00C00
03E00C00
03E00C00
06700C00
06700800
06381800
06381800
061C1800
041C1800
0C0E1000
0C0E3000
0C0E3000
0C073000
08073000
1803B000
1803E000
1801E000
1801E000
3800E000
FE00E000
ENDCHAR
STARTCHAR Oacute
ENCODING 211
SWIDTH 720 0
DWIDTH 24 0
BBX 22 28 1 0
BITMAP
0001C0
000380
000700
000E00
000000
000000
007F80
03C1E0
070070
0E0038
1C0038
3C001C
38001C
70001C
70001C
70001C
E0001C
E0001C
E0003C
E00038
E00038
E00078
E00070
7000E0
7001E0
3803C0
1E0F00
07FC00
ENDCHAR
STARTCHAR Ocircumflex
ENCODING 212
SWIDTH 720 0
DWIDTH 24 0
BBX 22 31 1 0
BITMAP
000700
000F00
001B00
003180
006180
00C0C0
000000
000000
000000
007F80
03C1E0
070070
0E0038
1C0038
3C001C
38001C
70001C
70001C
70001C
E0001C
E0001C
E0003C
E00038
E00038
E00078
E00070
7000E0
7001E0
3803C0
1E0F00
07FC00
ENDCHAR
STARTCHAR Ohungarumlaut
ENCODING 213
SWIDTH 720 0
DWIDTH 24 0
BBX 24 31 1 0
BITMAP
0000CE
00019C
000330
000660
000CC0
000900
000000
000000
000000
007F80
03C1E0
070070
0E0038
1C0038
3C001C
38001C
70001C
70001C
70001C
E0001C
E0001C
E0003C
E00038
E00038
E00078
E00070
7000E0
7001E0
3803C0
1E0F00
07FC00
ENDCHAR
STARTCHAR Odieresis
ENCODING 214
SWIDTH 720 0
DWIDTH 24 0
BBX 21 29 1 0
BITMAP
0071C0
0071C0
0071C0
000000
000000
000000
000000
007F00
03C1C0
0700E0
0E0070
1C0070
3C0038
380038
780038
700038
F00038
E00038
E00038
E00070
E00070
E00070
E000E0
6000E0
7001C0
380380
380700
0E0E00
03F800
ENDCHAR
STARTCHAR multiply
ENCODING 215
SWIDTH 840 0
DWIDTH 28 0
BBX 18 18 5 1
BITMAP
400080
E001C0
700380
380700
1C0E00
0E1C00
073800
03F000
01E000
01E000
03F000
073800
0E1C00
1C0E00
380700
700380
E001C0
400080
ENDCHAR
STARTCHAR Rcaron
ENCODING 216
SWIDTH 600 0
DWIDTH 20 0
BBX 21 31 -1 0
BITMAP
006080
002180
003300
003200
001E00
001C00
000000
000000
000000
0FFF00
0387C0
0381E0
0380E0
0380E0
0380E0
0700E0
0700C0
0701C0
070380
070F00
0FF800
0E1E00
0E0E00
0E0700
0E0700
1C0700
1C0380
1C0380
1C0380
1C01C0
FF01F8
ENDCHAR
STARTCHAR Uring
ENCODING 217
SWIDTH 660 0
DWIDTH 22 0
BBX 21 32 2 0
BITMAP
007800
00CC00
008400
018400
008400
00C800
007800
000000
000000
000000
FF03F8
1C0060
180040
3800C0
3800C0
3800C0
380080
300080
700180
700180
700180
700100
700100
E00300
E00300
E00300
E00200
E00600
F00C00
783C00
3FF000
0FC000
ENDCHAR
STARTCHAR Uacute
ENCODING 218
SWIDTH 660 0
DWIDTH 22 0
BBX 21 31 2 0
BITMAP
0003C0
000700
000600
000C00
001800
003000
000000
000000
000000
FF03F8
1C0060
180040
3800C0
3800C0
3800C0
380080
300080
700180
700180
700180
700100
700100
E00300
E00300
E00300
E00200
E00600
F00C00
783C00
3FF000
0FC000
ENDCHAR
STARTCHAR Uhungarumlaut
ENCODING 219
SWIDTH 660 0
DWIDTH 22 0
BBX 21 31 2 0
BITMAP
000670
000CE0
001980
003300
006600
004800
000000
000000
000000
FF03F8
1C0060
180040
3800C0
3800C0
3800C0
380080
300080
700180
700180
700180
700100
700100
E00300
E00300
E00300
E00200
E00600
F00C00
783C00
3FF000
0FC000
ENDCHAR
STARTCHAR Udieresis
ENCODING 220
SWIDTH 660 0
DWIDTH 22 0
BBX 21 29 2 0
BITMAP
01C700
01C700
01C700
000000
000000
000000
000000
FF03F8
3C00E0
3800C0
3800C0
3800C0
3800C0
300080
700180
700180
700180
700180
700100
E00300
E00300
E00300
E00300
E00600
E00600
E00E00
700C00
783800
1FE000
ENDCHAR
STARTCHAR Yacute
ENCODING 221
SWIDTH 540 0
DWIDTH 18 0
BBX 20 31 1 0
BITMAP
0003C0
000700
000600
000C00
001800
003000
000000
000000
000000
FF07F0
3801C0
1C0180
1C0300
1C0600
0C0C00
0E0C00
0E1800
063000
077000
076000
03C000
038000
038000
038000
038000
070000
070000
070000
070000
070000
3FC000
ENDCHAR
STARTCHAR Tcedilla
ENCODING 222
SWIDTH 540 0
DWIDTH 18 0
BBX 19 29 1 -7
BITMAP
7FFFE0
60E0E0
E0E0C0
C0E0C0
C0E0C0
01C000
01C000
01C000
01C000
01C000
038000
038000
038000
038000
038000
030000
070000
070000
070000
070000
0F0000
3FC000
0C0000
080000
0F0000
030000
030000
070000
7C0000
ENDCHAR
STARTCHAR germandbls
ENCODING 223
SWIDTH 570 0
DWIDTH 19 0
BBX 22 31 -5 -7
BITMAP
0007E0
001C38
00181C
00301C
00701C
00601C
00601C
00E038
00E0F8
00C1C0
00C300
00C600
00C600
01C700
01C380
01C3E0
0181F0
018078
018038
018038
039C38
039838
031C60
030FC0
030000
060000
060000
040000
EC0000
F80000
E00000
ENDCHAR
STARTCHAR racute
ENCODING 224
SWIDTH 390 0
DWIDTH 13 0
BBX 15 24 1 0
BITMAP
001E
0038
0030
0060
00C0
0180
0000
0000
38F0
F9F0
1B70
1E60
3400
3800
3000
3000
3000
7000
7000
7000
6000
6000
E000
E000
ENDCHAR
STARTCHAR aacute
ENCODING 225
SWIDTH 510 0
DWIDTH 17 0
BBX 17 24 1 0
BITMAP
000780
000E00
000C00
001800
003000
006000
000000
000000
03FC00
0E3C00
1C1800
381800
301800
701800
703800
E03000
E03000
E03000
E03000
E07000
E07000
71F000
7F7E00
1E3800
ENDCHAR
STARTCHAR acircumflex
ENCODING 226
SWIDTH 510 0
DWIDTH 17 0
BBX 15 24 1 0
BITMAP
0038
0078
00D8
018C
030C
0606
0000
0000
03FC
0E3C
1C18
3818
3018
7018
7038
E030
E030
E030
E030
E070
E070
71F0
7F7E
1E38
ENDCHAR
STARTCHAR abreve
ENCODING 227
SWIDTH 510 0
DWIDTH 17 0
BBX 16 24 1 0
BITMAP
0101
0101
0102
0186
00FC
0000
0000
0000
03FC
0E3C
1C18
3818
3018
7018
7038
E030
E030
E030
E030
E070
E070
71F0
7F7E
1E38
ENDCHAR
STARTCHAR adieresis
ENCODING 228
SWIDTH 510 0
DWIDTH 17 0
BBX 17 23 0 0
BITMAP
038E00
038E00
038E00
000000
000000
000000
000000
01F600
071E00
1C1E00
380C00
380C00
701C00
701C00
E01C00
E01800
E01800
E03800
E03800
E03800
707800
79BB80
1E1C00
ENDCHAR
STARTCHAR lacute
ENCODING 229
SWIDTH 270 0
DWIDTH 9 0
BBX 13 32 1 0
BITMAP
0078
00E0
00C0
0180
0300
0600
0000
0000
1E00
7E00
0E00
0C00
1C00
1C00
1C00
1800
1800
3800
3800
3800
3000
3000
7000
7000
6000
6000
E000
E000
E000
E000
FE00
7800
ENDCHAR
STARTCHAR cacute
ENCODING 230
SWIDTH 390 0
DWIDTH 13 0
BBX 13 21 -1 0
BITMAP
0038
0070
00E0
0000
0000
03E0
0E70
1830
3820
7000
7000
6000
E000
E000
E000
E000
E010
F030
7860
3FC0
1F00
ENDCHAR
STARTCHAR ccedilla
ENCODING 231
SWIDTH 390 0
DWIDTH 13 0
BBX 12 23 0 -7
BITMAP
03E0
0E70
1830
3820
7000
7000
6000
E000
E000
E000
E000
E010
F030
7860
3FC0
1F00
1800
1000
1E00
0600
0600
0E00
F800
ENDCHAR
STARTCHAR ccaron
ENCODING 232
SWIDTH 390 0
DWIDTH 13 0
BBX 15 24 0 0
BITMAP
0304
010C
0198
0190
00F0
00E0
0000
0000
03E0
0E70
1830
3820
7000
7000
6000
E000
E000
E000
E000
E010
F030
7860
3FC0
1F00
ENDCHAR
STARTCHAR eacute
ENCODING 233
SWIDTH 420 0
DWIDTH 14 0
BBX 15 24 1 0
BITMAP
001E
0038
0030
0060
00C0
0180
0000
0000
03E0
0C70
1870
3070
30E0
70E0
6380
FC00
E000
E000
E000
E010
7030
78C0
3F80
1E00
ENDCHAR
STARTCHAR eogonek
ENCODING 234
SWIDTH 420 0
DWIDTH 14 0
BBX 12 20 1 -4
BITMAP
03E0
0C70
1870
3070
30E0
70E0
6380
FC00
E000
E000
E000
E010
7030
78C0
3F80
1E00
0E00
0C00
1F80
1F00
ENDCHAR
STARTCHAR edieresis
ENCODING 235
SWIDTH 420 0
DWIDTH 14 0
BBX 13 23 1 0
BITMAP
0E38
0E38
0E38
0000
0000
0000
0000
03C0
0CE0
1870
3070
7070
60E0
61C0
E780
FC00
E000
E000
E000
E010
7060
70C0
3F00
ENDCHAR
STARTCHAR ecaron
ENCODING 236
SWIDTH 420 0
DWIDTH 14 0
BBX 14 24 1 0
BITMAP
0608
0218
0330
0320
01E0
01C0
0000
0000
03E0
0C70
1870
3070
30E0
70E0
6380
FC00
E000
E000
E000
E010
7030
78C0
3F80
1E00
ENDCHAR
STARTCHAR iacute
ENCODING 237
SWIDTH 300 0
DWIDTH 10 0
BBX 12 24 1 0
BITMAP
00F0
01C0
0180
0300
0600
0C00
0000
0000
1E00
FE00
1C00
1C00
1C00
1C00
1C00
3800
3800
3800
3800
7000
7000
7000
7F00
3C00
ENDCHAR
STARTCHAR icircumflex
ENCODING 238
SWIDTH 300 0
DWIDTH 10 0
BBX 10 24 1 0
BITMAP
0700
0F00
1B00
3180
6180
C0C0
0000
0000
1E00
FE00
1C00
1C00
1C00
1C00
1C00
3800
3800
3800
3800
7000
7000
7000
7F00
3C00
ENDCHAR
STARTCHAR dcaron
ENCODING 239
SWIDTH 510 0
DWIDTH 17 0
BBX 22 24 0 0
BITMAP
000F38
003F7C
00077C
00060C
000E18
000E18
000E30
000E60
03FCC0
0E3C00
1C1C00
381C00
301C00
701800
703800
E03800
E03800
E03800
E03000
E07000
F07000
71F000
7F7F00
1C3C00
ENDCHAR
STARTCHAR dmacron
ENCODING 240
SWIDTH 510 0
DWIDTH 17 0
BBX 18 24 0 0
BITMAP
000F00
003F00
000700
000600
03FFC0
03FFC0
000E00
000E00
03FC00
0E3C00
1C1C00
381C00
301C00
701800
703800
E03800
E03800
E03800
E03000
E07000
F07000
71F000
7F7F00
1C3C00
ENDCHAR
STARTCHAR nacute
ENCODING 241
SWIDTH 540 0
DWIDTH 18 0
BBX 16 21 1 0
BITMAP
0038
0070
00E0
0000
0000
3C78
F9FC
1B1C
3C1C
381C
381C
3018
3018
7038
7038
7030
7030
6030
6078
E07F
E03C
ENDCHAR
STARTCHAR ncaron
ENCODING 242
SWIDTH 540 0
DWIDTH 18 0
BBX 16 24 1 0
BITMAP
0182
0086
00CC
00C8
0078
0070
0000
0000
3C78
F9FC
1B1C
3C1C
381C
381C
3018
3018
7038
7038
7030
7030
6030
6078
E07F
E03C
ENDCHAR
STARTCHAR oacute
ENCODING 243
SWIDTH 510 0
DWIDTH 17 0
BBX 14 21 1 0
BITMAP
0070
00E0
01C0
0000
0000
07E0
0C70
1838
381C
701C
701C
601C
E01C
E01C
E018
E038
E038
E030
7060
38C0
1F00
ENDCHAR
STARTCHAR ocircumflex
ENCODING 244
SWIDTH 510 0
DWIDTH 17 0
BBX 14 24 1 0
BITMAP
0070
00F0
01B0
0318
0618
0C0C
0000
0000
07E0
0C70
1838
381C
701C
701C
601C
E01C
E01C
E018
E038
E038
E030
7060
38C0
1F00
ENDCHAR
STARTCHAR ohungarumlaut
ENCODING 245
SWIDTH 510 0
DWIDTH 17 0
BBX 18 24 1 0
BITMAP
003380
006700
00CC00
019800
033000
024000
000000
000000
07E000
0C7000
183800
381C00
701C00
701C00
601C00
E01C00
E01C00
E01800
E03800
E03800
E03000
706000
38C000
1F0000
ENDCHAR
STARTCHAR odieresis
ENCODING 246
SWIDTH 510 0
DWIDTH 17 0
BBX 14 23 1 0
BITMAP
071C
071C
071C
0000
0000
0000
0000
03E0
0C70
1838
3018
701C
701C
601C
E01C
E01C
E01C
E038
E038
E070
7060
71C0
1F80
ENDCHAR
STARTCHAR divide
ENCODING 247
SWIDTH 840 0
DWIDTH 28 0
BBX 20 16 4 2
BITMAP
006000
00F000
00F000
006000
000000
000000
000000
FFFFF0
FFFFF0
000000
000000
000000
006000
00F000
00F000
006000
ENDCHAR
STARTCHAR rcaron
ENCODING 248
SWIDTH 390 0
DWIDTH 13 0
BBX 14 24 1 0
BITMAP
0608
0218
0330
0320
01E0
01C0
0000
0000
38F0
F9F0
1B70
1E60
3400
3800
3000
3000
3000
7000
7000
7000
6000
6000
E000
E000
ENDCHAR
STARTCHAR uring
ENCODING 249
SWIDTH 540 0
DWIDTH 18 0
BBX 16 25 1 0
BITMAP
01E0
0330
0210
0610
0210
0320
01E0
0000
0000
1C0E
FC0E
1C0E
180C
180C
381C
381C
3018
3018
3018
7038
7038
7070
70F8
7F3F
3C3C
ENDCHAR
STARTCHAR uacute
ENCODING 250
SWIDTH 540 0
DWIDTH 18 0
BBX 16 24 1 0
BITMAP
000F
001C
0018
0030
0060
00C0
0000
0000
1C0E
FC0E
1C0E
180C
180C
381C
381C
3018
3018
3018
7038
7038
7070
70F8
7F3F
3C3C
ENDCHAR
STARTCHAR uhungarumlaut
ENCODING 251
SWIDTH 540 0
DWIDTH 18 0
BBX 19 24 1 0
BITMAP
0019C0
003380
006600
00CC00
019800
012000
000000
000000
1C0E00
FC0E00
1C0E00
180C00
180C00
381C00
381C00
301800
301800
301800
703800
703800
707000
70F800
7F3F00
3C3C00
ENDCHAR
STARTCHAR udieresis
ENCODING 252
SWIDTH 540 0
DWIDTH 18 0
BBX 17 23 1 0
BITMAP
071C00
071C00
071C00
000000
000000
000000
000000
3C0E00
FC0E00
380E00
380C00
381C00
381C00
701C00
701C00
701800
703800
F03800
E03800
E03000
E0F000
F33B80
3C3C00
ENDCHAR
STARTCHAR yacute
ENCODING 253
SWIDTH 480 0
DWIDTH 16 0
BBX 21 31 -4 -7
BITMAP
000078
0000E0
0000C0
000180
000300
000600
000000
000000
070060
1F80F0
0380E0
0181C0
01C180
01C300
00C300
00C200
00E600
00E400
006C00
006800
006800
007000
007000
002000
006000
00C000
008000
418000
E70000
FE0000
780000
ENDCHAR
STARTCHAR tcedilla
ENCODING 254
SWIDTH 330 0
DWIDTH 11 0
BBX 11 26 0 -7
BITMAP
0600
0E00
0C00
0C00
7FE0
1C00
1800
1800
3800
3800
3800
3000
3000
7000
7000
7000
7080
7F80
3C00
1800
1000
1E00
0600
0600
0E00
F800
ENDCHAR
STARTCHAR dotaccent
ENCODING 255
SWIDTH 270 0
DWIDTH 9 0
BBX 3 4 3 19
BITMAP
60
E0
E0
60
ENDCHAR
ENDFONT
